<svg width="1536" height="1024" viewBox="381 181 607 464"  version="1.1" xmlns="http://www.w3.org/2000/svg" desc="Created with imagetracer.js version 1.2.6" ><path fill="rgb(15,166,205)" stroke="rgb(15,166,205)" stroke-width="1" opacity="0.9725490196078431" d="M 897.5 320 L 911.5 320 L 912.5 321 L 921.5 321 L 932.5 323 L 944.5 327 L 950 331.5 L 946 340 Q 943.3 338.9 944 341.5 L 926.5 358 L 893.5 379 L 854.5 397 L 818.5 410 L 769.5 424 L 712.5 436 L 707.5 436 L 700.5 438 L 692.5 438 L 691.5 439 L 672.5 440 L 671.5 441 L 632.5 441 L 612.5 436 L 603 429.5 L 601 423.5 L 603.5 420 L 631 409.5 L 630.5 408 L 632.5 409 L 668.5 396 L 734.5 368 L 737.5 368 L 744.5 364 L 799.5 343 L 848.5 328 L 873.5 323 L 896.5 321 L 897.5 320 Z " /><path fill="rgb(15,166,205)" stroke="rgb(15,166,205)" stroke-width="1" opacity="0.9725490196078431" d="M 944.5 364 L 945 367.5 Q 940.8 386.3 931 399.5 Q 918.9 416.9 902.5 430 Q 882 447 857.5 460 Q 820.3 479.8 776.5 493 L 744.5 501 L 712.5 507 L 705.5 507 L 696.5 509 L 685.5 509 L 684.5 510 L 674.5 510 L 673.5 511 L 637.5 511 L 636.5 510 L 618.5 509 L 598.5 505 L 597 505.5 L 597.5 504 L 587.5 501 L 586 501.5 L 586.5 500 L 573.5 493 L 572 493.5 Q 574.8 491.8 570.5 490 L 569 490.5 L 570 489.5 L 566.5 486 L 565 486.5 L 565 484.5 L 563.5 482 L 562.5 484 L 562 482 L 560 481.5 L 562 478.5 L 559 469.5 L 559 467.5 Q 559.9 455.9 565 448.5 L 564.5 447 Q 565.8 449.3 567 446.5 L 575 433.5 L 587 419.5 L 586.5 418 L 587.5 419 L 594.5 412 L 598 409.5 Q 597.3 407.3 599.5 408 L 604.5 405 L 605 406.5 Q 597.3 411.8 598 425.5 Q 600.6 432.9 606.5 437 L 616.5 442 L 636.5 447 L 646.5 447 L 647.5 448 L 693.5 448 L 694.5 447 L 707.5 447 L 708.5 446 L 717.5 446 L 725.5 444 L 740.5 443 L 788 433.5 L 785 432.5 L 788.5 432 L 792.5 433 L 832 422.5 L 831.5 421 L 835.5 422 L 863.5 413 L 890 401.5 L 889.5 400 L 891.5 401 L 914.5 389 L 926 380.5 Q 923.8 379.3 926.5 378 L 926.5 380 L 939 370.5 L 940.5 368 Q 942.8 368.8 942 366.5 L 944.5 364 Z " /><path fill="rgb(15,166,205)" stroke="rgb(15,166,205)" stroke-width="1" opacity="0.9725490196078431" d="M 950.5 431 Q 968.7 428.3 975 437.5 L 977 440.5 L 978 451.5 L 973 470.5 L 966 485.5 L 958 498.5 L 941 520 Q 938.3 518.9 939 521.5 Q 919.8 542.3 896.5 559 L 859.5 582 L 833.5 595 L 793.5 611 L 750.5 624 L 746.5 624 L 728.5 629 L 686 635 Q 684.9 632.3 687.5 633 L 696 626.5 L 697 624.5 L 696.5 623 L 697.5 624 L 702 619.5 L 701 617.5 L 704 616.5 L 713 600.5 L 716 583.5 Q 714.1 574.4 707.5 570 L 705.5 571 L 702.5 567 L 689.5 562 L 640.5 554 L 620.5 548 Q 592.4 538.1 575 517.5 L 566 501.5 Q 565.5 494 562 489.5 L 563.5 490 L 566 491.5 L 571.5 498 Q 587.4 510.1 610.5 515 L 627.5 518 L 635.5 518 L 636.5 519 L 670.5 520 L 671.5 519 L 692.5 519 L 693.5 518 L 712.5 517 L 719.5 515 L 727.5 515 L 732.5 513 L 739.5 513 L 744.5 511 L 763.5 508 L 793.5 500 L 848.5 480 L 877.5 466 L 904.5 449 L 920.5 441 L 935.5 435 L 950.5 431 Z " /><path fill="rgb(0,0,0)" stroke="rgb(0,0,0)" stroke-width="1" opacity="0" d="M 0 0 L 1536 0 L 1536 1024 L 0 1024 L 0 0 Z M 898 320 L 897 321 L 874 323 L 849 328 L 800 343 L 745 364 L 738 368 L 735 368 L 669 396 L 604 420 L 601 424 L 603 430 L 613 436 L 633 441 L 672 441 L 673 440 L 692 439 L 693 438 L 701 438 L 708 436 L 713 436 L 770 424 L 819 410 L 855 397 L 894 379 L 927 358 L 944 342 Q 943 339 946 340 L 950 332 L 945 327 L 933 323 L 922 321 L 913 321 L 912 320 L 898 320 Z M 945 364 L 942 367 Q 943 369 941 368 L 939 371 L 915 389 L 881 406 L 836 422 L 793 433 L 789 432 L 785 433 L 788 434 L 741 443 L 726 444 L 718 446 L 709 446 L 708 447 L 695 447 L 694 448 L 648 448 L 647 447 L 637 447 L 617 442 L 607 437 Q 601 433 598 426 Q 597 412 605 407 L 605 405 L 600 408 Q 597 407 598 410 L 595 412 Q 577 428 565 449 Q 560 456 559 468 L 559 470 L 561 478 L 565 485 Q 574 495 588 501 L 607 507 L 626 509 L 627 510 L 637 510 L 638 511 L 674 511 L 675 510 L 685 510 L 686 509 L 697 509 L 706 507 L 713 507 L 745 501 L 777 493 Q 820 480 858 460 Q 882 447 903 430 Q 919 417 931 400 Q 941 386 945 368 L 945 364 Z M 951 431 L 936 435 L 921 441 L 905 449 L 878 466 L 849 480 L 794 500 L 764 508 L 745 511 L 740 513 L 733 513 L 728 515 L 720 515 L 713 517 L 694 518 L 693 519 L 672 519 L 671 520 L 637 519 L 636 518 L 628 518 L 611 515 Q 587 510 572 498 L 566 492 L 563 490 L 566 502 L 575 518 Q 592 538 621 548 L 641 554 L 690 562 L 703 567 L 704 570 L 706 569 L 708 570 Q 714 574 716 584 L 713 601 Q 707 616 696 627 L 688 633 Q 685 632 686 635 L 729 629 L 747 624 L 751 624 L 794 611 L 834 595 L 860 582 L 897 559 Q 920 542 939 522 Q 938 519 941 520 L 958 499 L 966 486 L 973 471 L 978 452 L 977 441 L 975 438 Q 969 428 951 431 Z M 562 480 L 560 482 L 562 482 L 562 480 Z " /></svg>
